<svg xmlns="http://www.w3.org/2000/svg" viewBox="256 256 512 512">
  <path
    d="M297.405,582.184c2.197,3.142,4.287,6.206,6.444,9.108l1.629,2.143l1.667,2.065c1.102,1.357,2.237,2.662,3.396,3.888 c4.567,4.951,9.669,8.748,14.395,10.229c4.735,1.506,8.759,0.976,13.257-0.865c4.466-1.865,9.169-5.269,13.585-9.486 c4.42-4.237,8.5-9.337,12.225-14.814c3.737-5.479,7.114-11.384,10.233-17.481c3.101-6.116,5.956-12.43,8.555-18.899 c1.323-3.238,2.516-6.44,3.833-9.929l3.899-10.263l15.668-41.165c2.646-6.871,5.295-13.754,8.019-20.616 c2.733-6.858,5.503-13.711,8.315-20.549c5.623-13.678,11.394-27.307,17.325-40.849c5.995-13.512,12.121-26.949,18.322-40.338 c4.262-9.203,15.178-13.209,24.382-8.947c5.854,2.711,9.605,8.114,10.463,14.056l0.073,0.545l1.338,9.791l1.243,9.796l1.11,9.804 l1.021,9.806c1.305,13.076,2.391,26.157,3.291,39.239c0.906,13.082,1.533,26.17,2.049,39.252 c0.499,13.084,0.852,26.165,1.025,39.245l-37.232-8.699c7.991-15.615,16.119-31.158,24.78-46.384 c8.545-15.295,17.532-30.324,26.745-45.208c9.204-14.892,18.792-29.54,28.668-44.018c4.935-7.24,9.991-14.409,15.112-21.551 c2.591-3.561,5.153-7.123,7.809-10.666c1.314-1.773,2.638-3.547,3.992-5.322l2.036-2.672l2.146-2.768 c6.769-8.729,19.332-10.319,28.062-3.55c6.213,4.818,8.809,12.571,7.349,19.788l-0.089,0.414l-1.849,9.049l-1.8,9.187 c-1.18,6.137-2.327,12.288-3.44,18.446c-2.225,12.317-4.318,24.661-6.271,37.015c-3.864,24.714-7.362,49.459-9.903,74.173 c-2.554,24.684-4.446,49.405-4.348,73.569c0.02,12.043,0.526,24.001,2.085,35.202c0.779,5.581,1.834,10.977,3.252,15.786 c0.715,2.389,1.493,4.659,2.343,6.615c0.848,1.953,1.761,3.667,2.613,4.861c0.42,0.624,0.821,1.108,1.165,1.476 c0.345,0.391,0.632,0.643,0.857,0.813c0.111,0.114,0.212,0.149,0.3,0.23c0.047,0.021,0.089,0.05,0.128,0.088l0.697,0.31 c0.486,0.228,0.973,0.434,1.462,0.617c0.486,0.206,0.975,0.381,1.463,0.545c3.905,1.361,7.801,1.949,11.816,1.751 c4.01-0.168,8.163-1.176,12.373-2.912c4.216-1.709,8.448-4.21,12.51-7.271c8.146-6.14,15.547-14.455,21.74-23.702 c3.103-4.632,5.914-9.518,8.408-14.564c2.517-5.035,4.713-10.24,6.525-15.532c3.606-10.547,5.753-21.61,5.379-31.712 c-0.187-5.026-1.045-9.748-2.608-13.674c-1.56-3.968-3.778-6.953-6.586-9.444c-2.834-2.466-6.619-4.432-11.298-5.783 c-4.666-1.349-10.091-2.058-15.82-2.282c-5.736-0.246-11.79-0.073-18.016,0.288c-6.239,0.351-12.618,0.974-19.319,1.281l-0.006,0 c-0.493,0.023-0.912-0.359-0.934-0.852c-0.013-0.275,0.104-0.53,0.292-0.703c4.995-4.541,10.506-8.319,16.39-11.626 c2.942-1.663,6.012-3.107,9.167-4.48c3.168-1.334,6.458-2.472,9.864-3.436c6.808-1.889,14.17-2.985,22.042-2.461 c3.927,0.285,7.976,0.99,12.011,2.265c4.033,1.257,8.029,3.179,11.732,5.643c3.68,2.497,7.052,5.566,9.832,9.01 c2.8,3.441,5.054,7.193,6.83,11.019c3.552,7.68,5.237,15.557,5.944,23.142c0.706,7.61,0.396,14.997-0.471,22.182 c-0.883,7.184-2.369,14.165-4.308,20.968c-3.886,13.603-9.566,26.516-16.953,38.62c-7.408,12.074-16.465,23.469-28.144,33.14 c-5.846,4.808-12.382,9.168-19.759,12.572c-7.355,3.393-15.598,5.782-24.234,6.48c-4.307,0.355-8.688,0.308-13.008-0.179 c-4.319-0.49-8.57-1.397-12.645-2.656c-1.022-0.31-2.034-0.639-3.024-1.006c-1.003-0.347-1.987-0.724-2.954-1.127l-1.49-0.613 l-2.008-0.948c-1.3-0.674-2.601-1.386-3.787-2.18c-2.427-1.559-4.6-3.326-6.499-5.167c-1.922-1.841-3.599-3.76-5.057-5.683 c-2.964-3.864-5.119-7.731-6.937-11.514c-1.817-3.788-3.188-7.49-4.357-11.142c-2.32-7.295-3.799-14.342-4.932-21.273 c-2.221-13.851-3.017-27.25-3.339-40.517c-0.246-13.257,0.125-26.342,0.791-39.341c0.69-12.996,1.655-25.904,2.957-38.744 c2.593-25.676,5.959-51.133,10.032-76.441c2.025-12.655,4.189-25.277,6.489-37.878c1.15-6.301,2.336-12.595,3.559-18.891 l1.869-9.449l1.972-9.556l35.322,16.651l-3.698,4.797c-1.261,1.646-2.515,3.321-3.768,5.005 c-2.517,3.343-4.989,6.769-7.472,10.167c-4.928,6.848-9.814,13.746-14.592,20.73c-9.576,13.953-18.938,28.085-27.902,42.463 c-8.978,14.367-17.741,28.875-26.06,43.619c-8.439,14.683-16.338,29.643-24.109,44.658l-0.12,0.231 c-4.99,9.641-16.851,13.412-26.492,8.422c-6.706-3.471-10.568-10.292-10.621-17.352c-0.068-12.779-0.251-25.554-0.609-38.317 c-0.342-12.763-0.895-25.512-1.533-38.244c-0.645-12.732-1.468-25.444-2.501-38.123l-0.815-9.502l-0.895-9.488l-0.939-9.477 l-1.029-9.459l34.917,5.654c-6.481,13.044-12.88,26.116-19.138,39.239c-6.313,13.097-12.483,26.246-18.506,39.474 c-3.013,6.613-5.989,13.247-8.934,19.903l-8.855,19.994l-17.538,40.28c-2.955,6.764-5.764,13.344-9.063,20.451 c-3.248,6.973-6.807,13.856-10.708,20.618c-3.926,6.754-8.196,13.391-13.072,19.777c-4.875,6.38-10.3,12.55-16.781,18.129 c-3.246,2.781-6.754,5.418-10.689,7.69c-3.94,2.254-8.265,4.208-13.062,5.394c-4.755,1.226-10.007,1.619-15.165,0.876 c-5.155-0.771-10.115-2.71-14.187-5.458c-2.051-1.361-3.914-2.885-5.552-4.536c-1.668-1.627-3.122-3.373-4.41-5.163 c-1.3-1.794-2.389-3.652-3.409-5.504c-0.966-1.878-1.831-3.774-2.559-5.681c-0.747-1.905-1.324-3.844-1.874-5.757 c-0.493-1.939-0.934-3.86-1.255-5.799c-0.653-3.868-0.968-7.739-0.865-11.62c0.013-0.489,0.42-0.875,0.909-0.862 c0.29,0.008,0.544,0.154,0.7,0.374L297.405,582.184z"
  />
</svg>
