<?xml version="1.0" standalone="no"?>
<!DOCTYPE svg PUBLIC "-//W3C//DTD SVG 20010904//EN"
 "http://www.w3.org/TR/2001/REC-SVG-20010904/DTD/svg10.dtd">
<svg version="1.0" xmlns="http://www.w3.org/2000/svg"
 width="700.000000pt" height="700.000000pt" viewBox="0 0 700.000000 700.000000"
 preserveAspectRatio="xMidYMid meet">
<metadata>
Created by potrace 1.11, written by Peter Selinger 2001-2013
</metadata>
<g transform="translate(0.000000,700.000000) scale(0.100000,-0.100000)"
fill="#000000" stroke="none">
<path d="M2164 5211 c-42 -26 -57 -49 -154 -236 -45 -88 -106 -205 -135 -260
-29 -55 -85 -163 -125 -240 -70 -136 -149 -287 -255 -490 -29 -55 -78 -151
-110 -212 l-58 -113 -66 -1 c-142 -1 -182 -14 -223 -71 -32 -46 -32 -130 1
-176 36 -51 74 -65 176 -68 50 -1 95 -3 101 -3 6 -1 37 -52 69 -113 31 -62 74
-144 95 -183 21 -38 77 -146 125 -240 48 -93 107 -206 130 -250 53 -100 155
-297 275 -530 51 -99 102 -191 114 -203 92 -103 262 -44 271 93 3 41 -4 61
-57 164 -85 163 -190 366 -261 501 -114 220 -215 414 -396 763 l-82 157 97
188 c53 103 118 228 144 277 26 50 89 171 140 270 51 99 105 203 120 230 15
28 66 124 113 215 196 379 186 356 182 406 -7 112 -138 182 -231 125z"/>
<path d="M4685 5211 c-59 -36 -90 -96 -81 -154 3 -19 29 -80 57 -134 28 -54
83 -159 121 -233 39 -74 94 -180 123 -235 29 -55 94 -181 145 -280 51 -99 105
-202 120 -230 15 -27 73 -139 129 -248 l102 -197 -82 -158 c-45 -86 -113 -218
-152 -292 -38 -74 -93 -180 -122 -235 -29 -55 -87 -167 -130 -250 -127 -247
-205 -395 -258 -495 -43 -80 -51 -103 -51 -148 1 -141 175 -206 270 -100 12
12 65 109 119 213 54 105 119 231 145 280 26 50 82 158 125 240 43 83 103 197
133 255 30 58 100 193 156 300 56 107 106 203 111 213 9 14 28 18 111 20 85 2
106 6 138 26 74 46 95 152 45 223 -38 53 -85 66 -236 68 l-51 0 -53 103 c-55
108 -109 213 -302 582 -114 220 -167 321 -335 645 -86 166 -111 204 -152 225
-40 21 -109 19 -145 -4z"/>
<path d="M2670 4438 c-40 -11 -87 -51 -103 -88 -7 -17 -11 -289 -12 -840 -2
-860 -2 -854 43 -903 65 -72 183 -64 243 16 l24 32 5 573 5 573 225 -307 c295
-402 296 -403 338 -421 43 -18 110 -13 147 11 14 9 39 36 56 59 16 23 39 53
49 67 36 48 216 292 325 441 l110 150 5 -568 c6 -633 3 -608 76 -653 70 -44
157 -24 211 47 l28 36 0 825 c0 901 2 866 -56 918 -77 68 -178 46 -249 -53
-19 -26 -40 -55 -47 -63 -7 -8 -73 -98 -148 -200 -185 -253 -412 -561 -430
-584 -9 -12 -18 -16 -23 -10 -9 10 -14 15 -409 554 -149 202 -273 362 -290
372 -37 21 -80 27 -123 16z"/>
<path d="M577 3775 c-260 -52 -307 -406 -70 -529 26 -13 46 -18 124 -30 39 -6
139 32 186 70 94 77 124 221 70 335 -44 94 -131 154 -238 164 -8 1 -40 -4 -72
-10z m123 -213 c42 -53 34 -108 -21 -141 -80 -49 -171 39 -128 122 31 58 111
68 149 19z"/>
<path d="M6278 3768 c-232 -78 -262 -397 -47 -516 187 -103 419 37 419 253 0
53 -15 98 -53 156 -66 102 -200 146 -319 107z m138 -190 c49 -23 58 -101 18
-142 -42 -41 -97 -39 -136 6 -44 51 -28 117 36 143 30 13 43 12 82 -7z"/>
</g>
</svg>
